<svg xmlns="http://www.w3.org/2000/svg" viewBox="0 0 785.76 197.46"><defs><style>.cls-1{fill:#e9f5e3;}.cls-2{fill:#1c1c1c;}</style></defs><title>Asset 1</title><g id="Layer_2" data-name="Layer 2"><g id="Layer_1-2" data-name="Layer 1"><path class="cls-1" d="M75.69,116.56l2.36,2.16,4.27,3.85c.22.2.42.41.62.62l4,3.7A6.15,6.15,0,0,1,87,136l-5,4.47a11,11,0,0,0,1.17-.9l27.89-25.25L94.62,99.42Z"/><path class="cls-1" d="M149.82,73.91a.76.76,0,0,0,0-.15A20.37,20.37,0,0,0,143,58.9L87.67,9.55a6.14,6.14,0,0,1-1.11,7.77l-4.14,3.75-.07.08L75,27.83,124.7,72.19,111.09,84.51l34.24,31a13.75,13.75,0,0,1,4.5,10.18c0,.37,0,.75-.06,1.12a11.71,11.71,0,0,0,.06-1.19V74.14C149.83,74.06,149.82,74,149.82,73.91Z"/><path class="cls-1" d="M74.91,81.59,63.53,71.29a6.14,6.14,0,0,1,0-9.11l3.08-2.8.11-.13a12,12,0,0,1,1.78-1.58h0a11,11,0,0,0-1,.81l-28,25.38L55.94,98.75Z"/><path class="cls-1" d="M63.32,180.13,66.81,177c.22-.23.44-.47.69-.69l7.36-6.65L25.88,126l13.59-12.3-35-31.57A13.73,13.73,0,0,1,0,71.94c0-.44,0-.87.07-1.31C0,71,0,71.45,0,71.86v51.49a20.43,20.43,0,0,0,6.83,15.24l55.49,49.49A6.16,6.16,0,0,1,63.32,180.13Z"/><path d="M191.09,51.65h25.84v70.62H262.1v22.65h-71Z"/><path d="M266.36,98.55v-.27c0-26.78,21.58-48.5,50.36-48.5s50.1,21.46,50.1,48.24v.26c0,26.79-21.59,48.5-50.37,48.5S266.36,125.33,266.36,98.55Zm73.94,0v-.27c0-13.59-9.59-25.18-23.85-25.18S292.74,84.56,292.74,98v.26c0,13.46,9.72,25.19,24,25.19S340.3,112,340.3,98.55Z"/><path d="M379.12,51.65H405V89.49l32.24-37.84h30.52l-35.31,40,36.51,53.3H438l-23.58-34.64L405,120.67v24.25H379.12Z"/><path d="M476,51.65H501.8v93.27H476Z"/><path d="M516.68,51.65H540.8L579.17,101V51.65h25.59v93.27H582.24l-40-51.17v51.17H516.68Z"/><path d="M618.73,51.65h75V73.5H644.32V87.76h44.76v20.38H644.32v14.79h50.09v22H618.73Z"/><path d="M729.93,74.3H702.08V51.65h83.68V74.3h-30v70.62H729.93Z"/><path class="cls-2" d="M149.83,125.69a13.75,13.75,0,0,0-4.5-10.18l-63-57c-.07-.07-.15-.12-.22-.18l-3-2.74a6.15,6.15,0,0,0-8.25,0l-2.34,2.11a12,12,0,0,0-1.78,1.58l-.11.13-3.08,2.8a6.14,6.14,0,0,0,0,9.11L75,81.64h0l48.62,44L67.5,176.29c-.25.22-.47.46-.69.69l-3.49,3.15a6.16,6.16,0,0,0,0,9.12l7.31,6.62a6.15,6.15,0,0,0,8.25,0l12.1-11,0,0,54.36-49.06A13.74,13.74,0,0,0,149.83,125.69Z"/><path class="cls-2" d="M87,126.89l-4-3.7c-.2-.21-.4-.42-.62-.62l-4.27-3.85-2.56-2.34h0L26.24,71.92,82.35,21.15l.07-.08,4.14-3.75a6.14,6.14,0,0,0,0-9.11L79.26,1.59a6.15,6.15,0,0,0-8.25,0l-12.1,11h0L4.5,61.77a13.71,13.71,0,0,0,0,20.32l54.3,49,0,0,12.63,11.48a6.15,6.15,0,0,0,8.25,0L87,136A6.15,6.15,0,0,0,87,126.89Z"/></g></g></svg>