<svg id="Layer_1" data-name="Layer 1" xmlns="http://www.w3.org/2000/svg" viewBox="0 0 785.76 197.46"><defs><style>.cls-1{fill:#6cbe45;}.cls-2{fill:none;stroke:#fff;stroke-linecap:round;stroke-miterlimit:10;stroke-width:9px;}.cls-3{fill:#1c1c1c;}</style></defs><title>lokinet-brand</title><path class="cls-1" d="M322.86,530.1l2.37,2.16,4.27,3.86c.21.19.41.4.61.61l4.05,3.7a6.15,6.15,0,0,1,0,9.12L329.21,554a12.53,12.53,0,0,0,1.16-.91l27.89-25.25L341.8,513Z" transform="translate(-247.18 -413.54)"/><path class="cls-1" d="M397,487.45a.76.76,0,0,1,0-.15,20.44,20.44,0,0,0-6.81-14.86L334.85,423.1a6.15,6.15,0,0,1-1.11,7.77l-4.15,3.74-.07.08-7.39,6.68,49.75,44.37-13.61,12.31,34.24,31A13.7,13.7,0,0,1,397,539.23c0,.38,0,.75-.06,1.12a11.5,11.5,0,0,0,.07-1.18V487.68C397,487.6,397,487.53,397,487.45Z" transform="translate(-247.18 -413.54)"/><path class="cls-1" d="M322.08,495.13l-11.37-10.3a6.14,6.14,0,0,1,0-9.11l3.09-2.79.1-.13a11.15,11.15,0,0,1,1.79-1.59h0a11.19,11.19,0,0,0-1,.81L286.63,497.4l16.49,14.89Z" transform="translate(-247.18 -413.54)"/><path class="cls-1" d="M310.5,593.68l3.48-3.15q.33-.36.69-.69l7.37-6.65-49-43.68,13.59-12.31-35-31.57a13.69,13.69,0,0,1-4.51-10.15c0-.44,0-.87.07-1.3a9.92,9.92,0,0,0-.07,1.23v51.48A20.46,20.46,0,0,0,254,552.13l55.5,49.49A6.14,6.14,0,0,1,310.5,593.68Z" transform="translate(-247.18 -413.54)"/><path d="M438.26,465.19h25.85v70.62h45.17v22.65h-71Z" transform="translate(-247.18 -413.54)"/><path d="M513.53,512.09v-.26c0-26.79,21.59-48.5,50.37-48.5S614,484.78,614,511.56v.27c0,26.78-21.58,48.5-50.36,48.5S513.53,538.87,513.53,512.09Zm74,0v-.26c0-13.59-9.59-25.19-23.85-25.19s-23.72,11.46-23.72,24.92v.27c0,13.45,9.73,25.18,24,25.18S587.48,525.55,587.48,512.09Z" transform="translate(-247.18 -413.54)"/><path d="M626.3,465.19h25.85V503l32.24-37.84H714.9l-35.31,40,36.51,53.3H685.19l-23.58-34.64-9.46,10.39v24.25H626.3Z" transform="translate(-247.18 -413.54)"/><path d="M723.13,465.19H749v93.27H723.13Z" transform="translate(-247.18 -413.54)"/><path d="M763.86,465.19H788l38.37,49.3v-49.3h25.58v93.27H829.41l-40-51.16v51.16H763.86Z" transform="translate(-247.18 -413.54)"/><path d="M865.91,465.19h75V487H891.49V501.3h44.77v20.39H891.49v14.79h50.1v22H865.91Z" transform="translate(-247.18 -413.54)"/><path d="M977.1,487.84H949.26V465.19h83.67v22.65h-30v70.62H977.1Z" transform="translate(-247.18 -413.54)"/><path class="cls-2" d="M329.46,489.56" transform="translate(-247.18 -413.54)"/><path class="cls-3" d="M397,539.23a13.7,13.7,0,0,0-4.49-10.17l-63-57-.23-.18-3-2.73a6.15,6.15,0,0,0-8.25,0l-2.33,2.11a11.15,11.15,0,0,0-1.79,1.59l-.1.13-3.09,2.79a6.14,6.14,0,0,0,0,9.11l11.43,10.36h0l48.62,44-56.1,50.64q-.36.33-.69.69l-3.48,3.15a6.14,6.14,0,0,0,0,9.11l7.31,6.62a6.15,6.15,0,0,0,8.25,0l12.09-10.95,0,0,54.36-49.06A13.71,13.71,0,0,0,397,539.23Z" transform="translate(-247.18 -413.54)"/><path class="cls-3" d="M334.16,540.43l-4.05-3.7c-.2-.21-.4-.42-.61-.61l-4.27-3.86-2.56-2.34,0,0-49.24-44.48,56.11-50.77.07-.08,4.15-3.74a6.15,6.15,0,0,0,0-9.12l-7.31-6.62a6.15,6.15,0,0,0-8.25,0l-12.1,10.95h0l-54.41,49.24a13.7,13.7,0,0,0,0,20.31l54.29,49h0l12.62,11.48a6.15,6.15,0,0,0,8.25,0l7.31-6.61A6.15,6.15,0,0,0,334.16,540.43Z" transform="translate(-247.18 -413.54)"/></svg>